# xmcd
#
# Track frame offsets:
#	150
#	17354
#	31762
#	47611
#	59989
#	82791
#	99552
#	112346
#	129433
#	144061
#	161003
#	177227
#	195597
#	213179
#	230132
#	249880
#	268016
#
# Disc length: 3796 seconds
#
# Revision: 1
# Processed by: cddbd v1.5.2PL0 Copyright (c) Steve Scherf et al.
# Submitted via: audiograbber 1.83.01
#
DISCID=e00ed211
DTITLE=Chartbuster's Karaoke - CBEP461-01
DYEAR=1900
DGENRE=A Cappella
TTITLE0=Byrd, Tracy - Don't Take Her She's All I've Got
TTITLE1=Twain, Shania - Come On Over
TTITLE2=Byrd, Tracy - Don't Love Make A Diamon Shine
TTITLE3=Rimes, LeAnn - Cowboy's Sweetheart
TTITLE4=McGraw, Tim - Everywhere
TTITLE5=Rimes, LeAnn - The Light In Your Eyes
TTITLE6=Engvall, Bill with Travis Tritt - Here's Your Sign (Get the Picture)
TTITLE7=Twain, Shania - Honey I'm Home
TTITLE8=Adkins, Trace - I Left Something Turned On At Home
TTITLE9=Kinleys, The - Please
TTITLE10=McCoy, Neal - The Shake
TTITLE11=Wilkinsons, The - 26 Cents
TTITLE12=Herndon, Ty - A Man Holdin' On
TTITLE13=Twain, Shania - Love Gets Me Every Time
TTITLE14=Adkins, Trace - This Ain't No Thinkin' Thing
TTITLE15=Moorer, Allison - A Soft Place To Fall
TTITLE16=Tritt, Travis - Where Corn Don't Grow
EXTD=
EXTT0=
EXTT1=
EXTT2=
EXTT3=
EXTT4=
EXTT5=
EXTT6=
EXTT7=
EXTT8=
EXTT9=
EXTT10=
EXTT11=
EXTT12=
EXTT13=
EXTT14=
EXTT15=
EXTT16=
PLAYORDER=
